<?xml version="1.0" encoding="UTF-8"?>
<svg xmlns="http://www.w3.org/2000/svg" width="1254.99" height="261.15" viewBox="0 0 1254.99 261.15" fill="currentColor" role="img" aria-labelledby="offlabelLogoTitle">
  <title id="offlabelLogoTitle">Offlabel Scaffolds Logo</title>
  <path fill="black" d="M630.53,162.26,196.59,164.88c0,53.99-43.29,96.28-98.55,96.28S0,220.2,0,165.89s43.28-96.28,98.54-96.28,98.04,40.95,98.04,95.26ZM147.46,165.89c0-29.62-21.25-51.95-49.42-51.95s-48.92,21.9-48.92,50.93,21.25,51.96,49.42,51.96,48.92-21.9,48.92-50.94ZM233.47,117.36v137.45c0,.69.56,1.25,1.25,1.25h49.87c.69,0,1.25-.56,1.25-1.25V117.36c0-.64.52-1.16,1.16-1.16h31.63c.69,0,1.25-.56,1.25-1.25v-40.22c0-.69-.56-1.25-1.25-1.25h-33.48v-7.23c0-13.78,6.89-19.98,18.94-19.98h15.23c.69,0,1.25-.56,1.25-1.26l-.34-41.6c0-.68-.56-1.24-1.25-1.24h-28.32c-18.6,0-32.73,4.82-42.37,14.47-9.65,9.64-14.82,24.46-14.82,44.78v11.71h-20.45c-.69,0-1.25.56-1.25,1.25v40.57c0,.69.56,1.25,1.25,1.25h19.29c.64,0,1.16.52,1.16,1.16ZM370.25,117.36v137.45c0,.69.56,1.25,1.25,1.25h49.87c.69,0,1.25-.56,1.25-1.25V117.36c0-.64.52-1.16,1.16-1.16h31.63c.69,0,1.25-.56,1.25-1.25v-40.22c0-.69-.56-1.25-1.25-1.25h-33.48v-7.23c0-13.78,6.89-19.98,18.94-19.98h15.23c.69,0,1.25-.56,1.25-1.26l-.34-41.6c0-.68-.56-1.24-1.25-1.24h-28.32c-18.6,0-32.73,4.82-42.37,14.47-9.65,9.64-14.82,24.46-14.82,44.78v11.71h-20.45c-.69,0-1.25.56-1.25,1.25v40.57c0,.69.56,1.25,1.25,1.25h19.29c.64,0,1.16.52,1.16,1.16ZM488.78,1.25v195.56c0,20.32,5.17,35.14,14.82,44.78,9.64,9.65,23.77,14.47,42.37,14.47h15.44c.69,0,1.25-.56,1.25-1.25v-41.05c0-1.07-.4-1.8-1.8-1.8h-1.45c-12.06,0-18.94-6.19-18.94-19.97l.68-190.73C541.14.56,540.58,0,539.89,0h-49.86c-.69,0-1.25.56-1.25,1.25ZM889.21,261.15c43.75,0,84.06-33.76,84.06-95.42v-.69c0-61.66-40.99-95.42-84.06-95.42-27.21,0-44.78,12.75-57.52,29.97V7.48c0-.69-.56-1.25-1.25-1.25h-49.87c-.69,0-1.25.56-1.25,1.25v247.33c0,.69.56,1.25,1.25,1.25h49.87c.69,0,1.25-.56,1.25-1.25v-21.22c12.4,14.81,29.62,27.56,57.52,27.56ZM875.78,216.71c-24.46,0-44.78-20.33-44.78-50.98v-.69c0-30.66,20.32-50.98,44.78-50.98s45.12,20.32,45.12,50.98v.69c0,31-20.67,50.98-45.12,50.98ZM1039.84,177.71h130.13c.67,0,1.23-.53,1.27-1.2.79-13.65-.4-26.75-3.6-39.29-3.29-12.91-8.63-24.41-16.02-34.5-7.4-10.09-16.84-18.13-28.34-24.11-11.5-5.99-25-8.98-40.49-8.98-13.85,0-26.46,2.46-37.85,7.4-11.39,4.93-21.19,11.68-29.4,20.24-8.22,8.57-14.56,18.72-19.01,30.46-4.46,11.74-6.69,24.42-6.69,38.02s2.17,27,6.51,38.73c4.34,11.74,10.5,21.83,18.49,30.28,7.98,8.45,17.72,14.96,29.22,19.54,11.5,4.58,24.41,6.87,38.73,6.87,20.65,0,38.26-4.69,52.81-14.08,14.18-9.14,25.7-26.17,32.75-47.13.27-.81-.34-1.67-1.19-1.67h-44.85c-.53,0-.99.33-1.14.83-.86,2.75-2.24,5.49-6.37,9.62-8.21,8.19-20.15,11.65-30.24,11.65-14.08,0-24.88-3.63-32.39-10.91-7.51-7.27-11.62-15.55-12.32-31.74ZM1121.17,146.02h-81.33c.23-3.52.99-7.51,2.29-11.97,1.28-4.46,3.52-8.68,6.69-12.67,3.17-3.99,7.39-7.33,12.67-10.03,5.28-2.69,11.91-4.05,19.89-4.05,12.2,0,21.3,3.29,27.29,9.86,5.99,6.57,10.15,16.19,12.5,28.87ZM1254.99,254.8V59.25c0-20.32-5.17-35.14-14.82-44.78C1230.54,4.82,1216.41,0,1197.81,0h-15.44c-.69,0-1.25.56-1.25,1.25v41.05c0,1.07.4,1.8,1.8,1.8h1.45c12.06,0,18.94,6.19,18.94,19.97l-.68,190.73c0,.69.56,1.25,1.25,1.25h49.86c.69,0,1.25-.56,1.25-1.25ZM751.73,149.73v105.08c0,.69-.56,1.25-1.25,1.25h-48.13c-.69,0-1.25-.56-1.25-1.25v-18.71l-2.46,2.99c-11.67,14.22-29.98,22.06-51.56,22.06-38.09,0-58.02-27.68-58.02-55.02,0-43.8,38.27-68.92,104.99-68.92h2.92s0-4.01,0-4.01c0-9.36-4.53-21.6-34.85-21.6-16.04,0-35.01,4.86-48.6,12.42l-.38.21c-.63.35-1.04.2-1.19-.3l-.37-1.26-8.84-34.4-.07-.24c-.17-.54-.13-.79.39-1.07.14-.08.07-.04.23-.12,7.31-3.83,31.9-15.6,68.96-15.6s79.46,14.09,79.46,78.51ZM698.86,170.18l-3.63-.03c-34.36,0-52.52,10.5-52.52,30.35,0,14.3,9.17,23.18,23.93,23.18s26.84-9.05,31.02-22.01c.79-3.17,1.2-6.67,1.2-10.21v-21.29Z"/>
</svg>
